<mxfile host="app.diagrams.net" agent="Mozilla/5.0 (Windows NT 10.0; Win64; x64) AppleWebKit/537.36 (KHTML, like Gecko) Chrome/133.0.0.0 Safari/537.36" version="26.1.0">
  <diagram id="8d_Tv3xV8jHTPdsMeVaf" name="Page-1">
    <mxGraphModel dx="2514" dy="868" grid="1" gridSize="10" guides="1" tooltips="1" connect="1" arrows="1" fold="1" page="1" pageScale="1" pageWidth="827" pageHeight="1169" math="0" shadow="0">
      <root>
        <mxCell id="0" />
        <mxCell id="1" parent="0" />
        <mxCell id="Th-7SKPegKyFKUl-QJ56-34" value="" style="verticalLabelPosition=bottom;verticalAlign=top;html=1;shape=mxgraph.basic.patternFillRect;fillStyle=diag;step=5;fillStrokeWidth=0.2;fillStrokeColor=#dddddd;fillColor=#dae8fc;strokeColor=#6c8ebf;" vertex="1" parent="1">
          <mxGeometry x="-60" y="60" width="690" height="440" as="geometry" />
        </mxCell>
        <mxCell id="Th-7SKPegKyFKUl-QJ56-32" value="" style="group" vertex="1" connectable="0" parent="1">
          <mxGeometry x="380" y="70" width="170" height="170" as="geometry" />
        </mxCell>
        <mxCell id="Th-7SKPegKyFKUl-QJ56-6" value="JMMLog" style="ellipse;whiteSpace=wrap;html=1;aspect=fixed;verticalAlign=top;spacingTop=12;" vertex="1" parent="Th-7SKPegKyFKUl-QJ56-32">
          <mxGeometry width="170" height="170" as="geometry" />
        </mxCell>
        <mxCell id="Th-7SKPegKyFKUl-QJ56-7" value="" style="curved=1;endArrow=none;html=1;rounded=0;startFill=0;bendable=0;editable=1;movable=1;resizable=1;rotatable=1;deletable=1;locked=0;connectable=1;anchorPointDirection=0;" edge="1" parent="Th-7SKPegKyFKUl-QJ56-32">
          <mxGeometry width="50" height="50" relative="1" as="geometry">
            <mxPoint x="65" y="80" as="sourcePoint" />
            <mxPoint x="65" y="40" as="targetPoint" />
            <Array as="points">
              <mxPoint x="75" y="70" />
              <mxPoint x="55" y="50" />
            </Array>
          </mxGeometry>
        </mxCell>
        <mxCell id="Th-7SKPegKyFKUl-QJ56-10" value="" style="curved=1;endArrow=none;html=1;rounded=0;startFill=0;bendable=0;editable=1;movable=1;resizable=1;rotatable=1;deletable=1;locked=0;connectable=1;anchorPointDirection=0;" edge="1" parent="Th-7SKPegKyFKUl-QJ56-32">
          <mxGeometry width="50" height="50" relative="1" as="geometry">
            <mxPoint x="50" y="150" as="sourcePoint" />
            <mxPoint x="50" y="110" as="targetPoint" />
            <Array as="points">
              <mxPoint x="60" y="140" />
              <mxPoint x="40" y="120" />
            </Array>
          </mxGeometry>
        </mxCell>
        <mxCell id="Th-7SKPegKyFKUl-QJ56-12" value="" style="curved=1;endArrow=none;html=1;rounded=0;startFill=0;bendable=0;editable=1;movable=1;resizable=1;rotatable=1;deletable=1;locked=0;connectable=1;anchorPointDirection=0;" edge="1" parent="Th-7SKPegKyFKUl-QJ56-32">
          <mxGeometry width="50" height="50" relative="1" as="geometry">
            <mxPoint x="85" y="80" as="sourcePoint" />
            <mxPoint x="85" y="40" as="targetPoint" />
            <Array as="points">
              <mxPoint x="95" y="70" />
              <mxPoint x="75" y="50" />
            </Array>
          </mxGeometry>
        </mxCell>
        <mxCell id="Th-7SKPegKyFKUl-QJ56-13" value="" style="curved=1;endArrow=none;html=1;rounded=0;startFill=0;bendable=0;editable=1;movable=1;resizable=1;rotatable=1;deletable=1;locked=0;connectable=1;anchorPointDirection=0;" edge="1" parent="Th-7SKPegKyFKUl-QJ56-32">
          <mxGeometry width="50" height="50" relative="1" as="geometry">
            <mxPoint x="105" y="80" as="sourcePoint" />
            <mxPoint x="105" y="40" as="targetPoint" />
            <Array as="points">
              <mxPoint x="115" y="70" />
              <mxPoint x="95" y="50" />
            </Array>
          </mxGeometry>
        </mxCell>
        <mxCell id="Th-7SKPegKyFKUl-QJ56-14" value="" style="curved=1;endArrow=none;html=1;rounded=0;startFill=0;bendable=0;editable=1;movable=1;resizable=1;rotatable=1;deletable=1;locked=0;connectable=1;anchorPointDirection=0;" edge="1" parent="Th-7SKPegKyFKUl-QJ56-32">
          <mxGeometry width="50" height="50" relative="1" as="geometry">
            <mxPoint x="120" y="150" as="sourcePoint" />
            <mxPoint x="120" y="110" as="targetPoint" />
            <Array as="points">
              <mxPoint x="130" y="140" />
              <mxPoint x="110" y="120" />
            </Array>
          </mxGeometry>
        </mxCell>
        <mxCell id="Th-7SKPegKyFKUl-QJ56-15" value="" style="endArrow=none;dashed=1;html=1;rounded=0;entryX=0.996;entryY=0.635;entryDx=0;entryDy=0;entryPerimeter=0;exitX=0.006;exitY=0.627;exitDx=0;exitDy=0;exitPerimeter=0;" edge="1" parent="Th-7SKPegKyFKUl-QJ56-32" source="Th-7SKPegKyFKUl-QJ56-6" target="Th-7SKPegKyFKUl-QJ56-6">
          <mxGeometry width="50" height="50" relative="1" as="geometry">
            <mxPoint x="20" y="240" as="sourcePoint" />
            <mxPoint x="70" y="190" as="targetPoint" />
          </mxGeometry>
        </mxCell>
        <mxCell id="Th-7SKPegKyFKUl-QJ56-17" value="" style="endArrow=none;dashed=1;html=1;rounded=0;exitX=0.5;exitY=1;exitDx=0;exitDy=0;" edge="1" parent="Th-7SKPegKyFKUl-QJ56-32" source="Th-7SKPegKyFKUl-QJ56-6">
          <mxGeometry width="50" height="50" relative="1" as="geometry">
            <mxPoint x="20" y="240" as="sourcePoint" />
            <mxPoint x="85" y="107" as="targetPoint" />
          </mxGeometry>
        </mxCell>
        <mxCell id="Th-7SKPegKyFKUl-QJ56-8" value="" style="group" vertex="1" connectable="0" parent="1">
          <mxGeometry x="110" y="70" width="130" height="130" as="geometry" />
        </mxCell>
        <mxCell id="Th-7SKPegKyFKUl-QJ56-1" value="JMMLog" style="ellipse;whiteSpace=wrap;html=1;aspect=fixed;verticalAlign=top;spacingTop=12;" vertex="1" parent="Th-7SKPegKyFKUl-QJ56-8">
          <mxGeometry width="130" height="130" as="geometry" />
        </mxCell>
        <mxCell id="Th-7SKPegKyFKUl-QJ56-3" value="" style="curved=1;endArrow=none;html=1;rounded=0;startFill=0;bendable=0;editable=1;movable=1;resizable=1;rotatable=1;deletable=1;locked=0;connectable=1;anchorPointDirection=0;" edge="1" parent="Th-7SKPegKyFKUl-QJ56-8">
          <mxGeometry width="50" height="50" relative="1" as="geometry">
            <mxPoint x="80" y="85" as="sourcePoint" />
            <mxPoint x="80" y="45" as="targetPoint" />
            <Array as="points">
              <mxPoint x="90" y="75" />
              <mxPoint x="70" y="55" />
            </Array>
          </mxGeometry>
        </mxCell>
        <mxCell id="Th-7SKPegKyFKUl-QJ56-5" value="" style="curved=1;endArrow=none;html=1;rounded=0;startFill=0;bendable=0;editable=1;movable=1;resizable=1;rotatable=1;deletable=1;locked=0;connectable=1;anchorPointDirection=0;" edge="1" parent="Th-7SKPegKyFKUl-QJ56-8">
          <mxGeometry width="50" height="50" relative="1" as="geometry">
            <mxPoint x="50" y="100" as="sourcePoint" />
            <mxPoint x="50" y="60" as="targetPoint" />
            <Array as="points">
              <mxPoint x="60" y="90" />
              <mxPoint x="40" y="70" />
            </Array>
          </mxGeometry>
        </mxCell>
        <mxCell id="Th-7SKPegKyFKUl-QJ56-9" value="" style="group" vertex="1" connectable="0" parent="1">
          <mxGeometry x="200" y="360" width="130" height="130" as="geometry" />
        </mxCell>
        <mxCell id="Th-7SKPegKyFKUl-QJ56-2" value="JMMapl" style="ellipse;whiteSpace=wrap;html=1;aspect=fixed;verticalAlign=top;spacingTop=12;" vertex="1" parent="Th-7SKPegKyFKUl-QJ56-9">
          <mxGeometry width="130" height="130" as="geometry" />
        </mxCell>
        <mxCell id="Th-7SKPegKyFKUl-QJ56-4" value="" style="curved=1;endArrow=none;html=1;rounded=0;startFill=0;bendable=0;editable=1;movable=1;resizable=1;rotatable=1;deletable=1;locked=0;connectable=1;anchorPointDirection=0;" edge="1" parent="Th-7SKPegKyFKUl-QJ56-9">
          <mxGeometry width="50" height="50" relative="1" as="geometry">
            <mxPoint x="65" y="110" as="sourcePoint" />
            <mxPoint x="65" y="70" as="targetPoint" />
            <Array as="points">
              <mxPoint x="75" y="100" />
              <mxPoint x="55" y="80" />
            </Array>
          </mxGeometry>
        </mxCell>
        <mxCell id="Th-7SKPegKyFKUl-QJ56-19" value="" style="endArrow=classic;startArrow=classic;html=1;rounded=0;entryX=0;entryY=1;entryDx=0;entryDy=0;exitX=0.78;exitY=0.063;exitDx=0;exitDy=0;exitPerimeter=0;" edge="1" parent="1" source="Th-7SKPegKyFKUl-QJ56-2" target="Th-7SKPegKyFKUl-QJ56-6">
          <mxGeometry width="50" height="50" relative="1" as="geometry">
            <mxPoint x="430" y="270" as="sourcePoint" />
            <mxPoint x="480" y="220" as="targetPoint" />
          </mxGeometry>
        </mxCell>
        <mxCell id="Th-7SKPegKyFKUl-QJ56-20" value="S_datagram" style="edgeLabel;html=1;align=center;verticalAlign=middle;resizable=0;points=[];" vertex="1" connectable="0" parent="Th-7SKPegKyFKUl-QJ56-19">
          <mxGeometry x="0.1388" y="-1" relative="1" as="geometry">
            <mxPoint as="offset" />
          </mxGeometry>
        </mxCell>
        <mxCell id="Th-7SKPegKyFKUl-QJ56-21" value="" style="endArrow=classic;startArrow=classic;html=1;rounded=0;entryX=1;entryY=1;entryDx=0;entryDy=0;exitX=0.928;exitY=0.286;exitDx=0;exitDy=0;exitPerimeter=0;" edge="1" parent="1" source="Th-7SKPegKyFKUl-QJ56-2" target="Th-7SKPegKyFKUl-QJ56-6">
          <mxGeometry width="50" height="50" relative="1" as="geometry">
            <mxPoint x="350" y="403" as="sourcePoint" />
            <mxPoint x="484" y="210" as="targetPoint" />
          </mxGeometry>
        </mxCell>
        <mxCell id="Th-7SKPegKyFKUl-QJ56-22" value="S_stream" style="edgeLabel;html=1;align=center;verticalAlign=middle;resizable=0;points=[];" vertex="1" connectable="0" parent="Th-7SKPegKyFKUl-QJ56-21">
          <mxGeometry x="0.1388" y="-1" relative="1" as="geometry">
            <mxPoint as="offset" />
          </mxGeometry>
        </mxCell>
        <mxCell id="Th-7SKPegKyFKUl-QJ56-23" value="" style="endArrow=classic;startArrow=classic;html=1;rounded=0;entryX=0.448;entryY=0.984;entryDx=0;entryDy=0;exitX=0.26;exitY=0.053;exitDx=0;exitDy=0;exitPerimeter=0;entryPerimeter=0;" edge="1" parent="1" source="Th-7SKPegKyFKUl-QJ56-2" target="Th-7SKPegKyFKUl-QJ56-1">
          <mxGeometry width="50" height="50" relative="1" as="geometry">
            <mxPoint x="311" y="378" as="sourcePoint" />
            <mxPoint x="445" y="185" as="targetPoint" />
          </mxGeometry>
        </mxCell>
        <mxCell id="Th-7SKPegKyFKUl-QJ56-24" value="S_datagram" style="edgeLabel;html=1;align=center;verticalAlign=middle;resizable=0;points=[];" vertex="1" connectable="0" parent="Th-7SKPegKyFKUl-QJ56-23">
          <mxGeometry x="0.1388" y="-1" relative="1" as="geometry">
            <mxPoint as="offset" />
          </mxGeometry>
        </mxCell>
        <mxCell id="Th-7SKPegKyFKUl-QJ56-25" value="" style="endArrow=classic;html=1;rounded=0;entryX=1;entryY=0.5;entryDx=0;entryDy=0;exitX=0.014;exitY=0.416;exitDx=0;exitDy=0;exitPerimeter=0;" edge="1" parent="1" source="Th-7SKPegKyFKUl-QJ56-6" target="Th-7SKPegKyFKUl-QJ56-1">
          <mxGeometry width="50" height="50" relative="1" as="geometry">
            <mxPoint x="430" y="270" as="sourcePoint" />
            <mxPoint x="480" y="220" as="targetPoint" />
          </mxGeometry>
        </mxCell>
        <mxCell id="Th-7SKPegKyFKUl-QJ56-26" value="queue" style="edgeLabel;html=1;align=center;verticalAlign=middle;resizable=0;points=[];" vertex="1" connectable="0" parent="Th-7SKPegKyFKUl-QJ56-25">
          <mxGeometry x="0.1311" y="1" relative="1" as="geometry">
            <mxPoint as="offset" />
          </mxGeometry>
        </mxCell>
        <mxCell id="Th-7SKPegKyFKUl-QJ56-27" value="" style="shape=cylinder3;whiteSpace=wrap;html=1;boundedLbl=1;backgroundOutline=1;size=15;" vertex="1" parent="1">
          <mxGeometry x="-30" y="95" width="60" height="80" as="geometry" />
        </mxCell>
        <mxCell id="Th-7SKPegKyFKUl-QJ56-28" value="" style="endArrow=classic;startArrow=classic;html=1;rounded=0;entryX=1;entryY=0.5;entryDx=0;entryDy=0;exitX=0;exitY=0.5;exitDx=0;exitDy=0;entryPerimeter=0;" edge="1" parent="1" source="Th-7SKPegKyFKUl-QJ56-1" target="Th-7SKPegKyFKUl-QJ56-27">
          <mxGeometry width="50" height="50" relative="1" as="geometry">
            <mxPoint x="244" y="377" as="sourcePoint" />
            <mxPoint x="178" y="208" as="targetPoint" />
          </mxGeometry>
        </mxCell>
        <mxCell id="Th-7SKPegKyFKUl-QJ56-29" value="mmap" style="edgeLabel;html=1;align=center;verticalAlign=middle;resizable=0;points=[];" vertex="1" connectable="0" parent="Th-7SKPegKyFKUl-QJ56-28">
          <mxGeometry x="0.1388" y="-1" relative="1" as="geometry">
            <mxPoint as="offset" />
          </mxGeometry>
        </mxCell>
        <mxCell id="Th-7SKPegKyFKUl-QJ56-35" value="" style="group" vertex="1" connectable="0" parent="1">
          <mxGeometry x="-120" y="600" width="130" height="130" as="geometry" />
        </mxCell>
        <mxCell id="Th-7SKPegKyFKUl-QJ56-36" value="JMMapl" style="ellipse;whiteSpace=wrap;html=1;aspect=fixed;verticalAlign=top;spacingTop=12;" vertex="1" parent="Th-7SKPegKyFKUl-QJ56-35">
          <mxGeometry width="130" height="130" as="geometry" />
        </mxCell>
        <mxCell id="Th-7SKPegKyFKUl-QJ56-37" value="" style="curved=1;endArrow=none;html=1;rounded=0;startFill=0;bendable=0;editable=1;movable=1;resizable=1;rotatable=1;deletable=1;locked=0;connectable=1;anchorPointDirection=0;" edge="1" parent="Th-7SKPegKyFKUl-QJ56-35">
          <mxGeometry width="50" height="50" relative="1" as="geometry">
            <mxPoint x="65" y="110" as="sourcePoint" />
            <mxPoint x="65" y="70" as="targetPoint" />
            <Array as="points">
              <mxPoint x="75" y="100" />
              <mxPoint x="55" y="80" />
            </Array>
          </mxGeometry>
        </mxCell>
        <mxCell id="Th-7SKPegKyFKUl-QJ56-38" value="Datagram_1" style="rounded=0;whiteSpace=wrap;html=1;" vertex="1" parent="1">
          <mxGeometry x="-115" y="810" width="120" height="60" as="geometry" />
        </mxCell>
        <mxCell id="Th-7SKPegKyFKUl-QJ56-39" style="edgeStyle=orthogonalEdgeStyle;rounded=0;orthogonalLoop=1;jettySize=auto;html=1;entryX=0.5;entryY=0;entryDx=0;entryDy=0;" edge="1" parent="1" source="Th-7SKPegKyFKUl-QJ56-36" target="Th-7SKPegKyFKUl-QJ56-38">
          <mxGeometry relative="1" as="geometry" />
        </mxCell>
      </root>
    </mxGraphModel>
  </diagram>
</mxfile>
